<mxfile host="app.diagrams.net" agent="Mozilla/5.0 (Windows NT 10.0; Win64; x64) AppleWebKit/537.36 (KHTML, like Gecko) Chrome/132.0.0.0 YaBrowser/25.2.0.0 Safari/537.36" version="26.1.2">
  <diagram name="Страница — 1" id="-x0BsboxAiHmfP897rHa">
    <mxGraphModel dx="1602" dy="489" grid="0" gridSize="10" guides="0" tooltips="0" connect="1" arrows="1" fold="1" page="0" pageScale="1" pageWidth="827" pageHeight="1169" math="0" shadow="0">
      <root>
        <mxCell id="0" />
        <mxCell id="1" parent="0" />
        <mxCell id="EsE5XuvK5zQ7oteYSQ8Q-16" style="edgeStyle=orthogonalEdgeStyle;rounded=0;orthogonalLoop=1;jettySize=auto;html=1;exitX=0.5;exitY=1;exitDx=0;exitDy=0;entryX=0.5;entryY=0;entryDx=0;entryDy=0;" edge="1" parent="1" source="EsE5XuvK5zQ7oteYSQ8Q-1" target="EsE5XuvK5zQ7oteYSQ8Q-2">
          <mxGeometry relative="1" as="geometry" />
        </mxCell>
        <mxCell id="EsE5XuvK5zQ7oteYSQ8Q-18" style="edgeStyle=orthogonalEdgeStyle;rounded=0;orthogonalLoop=1;jettySize=auto;html=1;exitX=0.75;exitY=1;exitDx=0;exitDy=0;entryX=0.5;entryY=0;entryDx=0;entryDy=0;" edge="1" parent="1" source="EsE5XuvK5zQ7oteYSQ8Q-1" target="EsE5XuvK5zQ7oteYSQ8Q-4">
          <mxGeometry relative="1" as="geometry" />
        </mxCell>
        <mxCell id="EsE5XuvK5zQ7oteYSQ8Q-21" style="edgeStyle=orthogonalEdgeStyle;rounded=0;orthogonalLoop=1;jettySize=auto;html=1;exitX=0;exitY=0.5;exitDx=0;exitDy=0;entryX=0.5;entryY=0;entryDx=0;entryDy=0;" edge="1" parent="1" source="EsE5XuvK5zQ7oteYSQ8Q-1" target="EsE5XuvK5zQ7oteYSQ8Q-8">
          <mxGeometry relative="1" as="geometry" />
        </mxCell>
        <mxCell id="EsE5XuvK5zQ7oteYSQ8Q-22" style="edgeStyle=orthogonalEdgeStyle;rounded=0;orthogonalLoop=1;jettySize=auto;html=1;exitX=0;exitY=0.75;exitDx=0;exitDy=0;entryX=0.5;entryY=0;entryDx=0;entryDy=0;" edge="1" parent="1" source="EsE5XuvK5zQ7oteYSQ8Q-1" target="EsE5XuvK5zQ7oteYSQ8Q-6">
          <mxGeometry relative="1" as="geometry" />
        </mxCell>
        <mxCell id="EsE5XuvK5zQ7oteYSQ8Q-23" style="edgeStyle=orthogonalEdgeStyle;rounded=0;orthogonalLoop=1;jettySize=auto;html=1;exitX=0;exitY=0.25;exitDx=0;exitDy=0;entryX=0.5;entryY=0;entryDx=0;entryDy=0;" edge="1" parent="1" source="EsE5XuvK5zQ7oteYSQ8Q-1" target="EsE5XuvK5zQ7oteYSQ8Q-9">
          <mxGeometry relative="1" as="geometry" />
        </mxCell>
        <mxCell id="EsE5XuvK5zQ7oteYSQ8Q-24" style="edgeStyle=orthogonalEdgeStyle;rounded=0;orthogonalLoop=1;jettySize=auto;html=1;exitX=0;exitY=0.25;exitDx=0;exitDy=0;entryX=0.5;entryY=0;entryDx=0;entryDy=0;" edge="1" parent="1" source="EsE5XuvK5zQ7oteYSQ8Q-1" target="EsE5XuvK5zQ7oteYSQ8Q-10">
          <mxGeometry relative="1" as="geometry" />
        </mxCell>
        <mxCell id="EsE5XuvK5zQ7oteYSQ8Q-25" style="edgeStyle=orthogonalEdgeStyle;rounded=0;orthogonalLoop=1;jettySize=auto;html=1;exitX=0;exitY=0.25;exitDx=0;exitDy=0;entryX=0.5;entryY=0;entryDx=0;entryDy=0;" edge="1" parent="1" source="EsE5XuvK5zQ7oteYSQ8Q-1" target="EsE5XuvK5zQ7oteYSQ8Q-11">
          <mxGeometry relative="1" as="geometry" />
        </mxCell>
        <mxCell id="EsE5XuvK5zQ7oteYSQ8Q-26" style="edgeStyle=orthogonalEdgeStyle;rounded=0;orthogonalLoop=1;jettySize=auto;html=1;exitX=1;exitY=0.5;exitDx=0;exitDy=0;entryX=0.5;entryY=0;entryDx=0;entryDy=0;" edge="1" parent="1" source="EsE5XuvK5zQ7oteYSQ8Q-1" target="EsE5XuvK5zQ7oteYSQ8Q-12">
          <mxGeometry relative="1" as="geometry" />
        </mxCell>
        <mxCell id="EsE5XuvK5zQ7oteYSQ8Q-1" value="Главная" style="rounded=0;whiteSpace=wrap;html=1;" vertex="1" parent="1">
          <mxGeometry x="280" y="100" width="120" height="60" as="geometry" />
        </mxCell>
        <mxCell id="EsE5XuvK5zQ7oteYSQ8Q-17" style="edgeStyle=orthogonalEdgeStyle;rounded=0;orthogonalLoop=1;jettySize=auto;html=1;exitX=0.5;exitY=1;exitDx=0;exitDy=0;entryX=0.5;entryY=0;entryDx=0;entryDy=0;" edge="1" parent="1" source="EsE5XuvK5zQ7oteYSQ8Q-2" target="EsE5XuvK5zQ7oteYSQ8Q-5">
          <mxGeometry relative="1" as="geometry" />
        </mxCell>
        <mxCell id="EsE5XuvK5zQ7oteYSQ8Q-2" value="Вход" style="rounded=0;whiteSpace=wrap;html=1;" vertex="1" parent="1">
          <mxGeometry x="280" y="200" width="120" height="60" as="geometry" />
        </mxCell>
        <mxCell id="EsE5XuvK5zQ7oteYSQ8Q-4" value="&lt;div&gt;Регистрация&lt;/div&gt;" style="rounded=0;whiteSpace=wrap;html=1;" vertex="1" parent="1">
          <mxGeometry x="414" y="200" width="120" height="60" as="geometry" />
        </mxCell>
        <mxCell id="EsE5XuvK5zQ7oteYSQ8Q-5" value="Мой профиль" style="rounded=0;whiteSpace=wrap;html=1;" vertex="1" parent="1">
          <mxGeometry x="280" y="280" width="120" height="60" as="geometry" />
        </mxCell>
        <mxCell id="EsE5XuvK5zQ7oteYSQ8Q-6" value="Чаты" style="rounded=0;whiteSpace=wrap;html=1;" vertex="1" parent="1">
          <mxGeometry x="150" y="200" width="120" height="60" as="geometry" />
        </mxCell>
        <mxCell id="EsE5XuvK5zQ7oteYSQ8Q-8" value="Пользователи" style="rounded=0;whiteSpace=wrap;html=1;" vertex="1" parent="1">
          <mxGeometry x="20" y="200" width="120" height="60" as="geometry" />
        </mxCell>
        <mxCell id="EsE5XuvK5zQ7oteYSQ8Q-9" value="Чаты" style="rounded=0;whiteSpace=wrap;html=1;" vertex="1" parent="1">
          <mxGeometry x="-110" y="200" width="120" height="60" as="geometry" />
        </mxCell>
        <mxCell id="EsE5XuvK5zQ7oteYSQ8Q-10" value="Форум" style="rounded=0;whiteSpace=wrap;html=1;" vertex="1" parent="1">
          <mxGeometry x="-240" y="200" width="120" height="60" as="geometry" />
        </mxCell>
        <mxCell id="EsE5XuvK5zQ7oteYSQ8Q-11" value="IT-Хакатоны" style="rounded=0;whiteSpace=wrap;html=1;" vertex="1" parent="1">
          <mxGeometry x="-370" y="200" width="120" height="60" as="geometry" />
        </mxCell>
        <mxCell id="EsE5XuvK5zQ7oteYSQ8Q-27" style="edgeStyle=orthogonalEdgeStyle;rounded=0;orthogonalLoop=1;jettySize=auto;html=1;exitX=1;exitY=0.5;exitDx=0;exitDy=0;entryX=0.5;entryY=0;entryDx=0;entryDy=0;" edge="1" parent="1" source="EsE5XuvK5zQ7oteYSQ8Q-12" target="EsE5XuvK5zQ7oteYSQ8Q-15">
          <mxGeometry relative="1" as="geometry" />
        </mxCell>
        <mxCell id="EsE5XuvK5zQ7oteYSQ8Q-28" style="edgeStyle=orthogonalEdgeStyle;rounded=0;orthogonalLoop=1;jettySize=auto;html=1;exitX=0.5;exitY=1;exitDx=0;exitDy=0;entryX=0.5;entryY=0;entryDx=0;entryDy=0;" edge="1" parent="1" source="EsE5XuvK5zQ7oteYSQ8Q-12" target="EsE5XuvK5zQ7oteYSQ8Q-14">
          <mxGeometry relative="1" as="geometry" />
        </mxCell>
        <mxCell id="EsE5XuvK5zQ7oteYSQ8Q-29" style="edgeStyle=orthogonalEdgeStyle;rounded=0;orthogonalLoop=1;jettySize=auto;html=1;exitX=0;exitY=0.5;exitDx=0;exitDy=0;entryX=0.5;entryY=0;entryDx=0;entryDy=0;" edge="1" parent="1" source="EsE5XuvK5zQ7oteYSQ8Q-12" target="EsE5XuvK5zQ7oteYSQ8Q-13">
          <mxGeometry relative="1" as="geometry" />
        </mxCell>
        <mxCell id="EsE5XuvK5zQ7oteYSQ8Q-12" value="Страницы администратора" style="rounded=0;whiteSpace=wrap;html=1;" vertex="1" parent="1">
          <mxGeometry x="560" y="260" width="120" height="60" as="geometry" />
        </mxCell>
        <mxCell id="EsE5XuvK5zQ7oteYSQ8Q-13" value="Управление пользователями" style="rounded=0;whiteSpace=wrap;html=1;" vertex="1" parent="1">
          <mxGeometry x="430" y="340" width="120" height="60" as="geometry" />
        </mxCell>
        <mxCell id="EsE5XuvK5zQ7oteYSQ8Q-14" value="Модерация контента" style="rounded=0;whiteSpace=wrap;html=1;" vertex="1" parent="1">
          <mxGeometry x="560" y="340" width="120" height="60" as="geometry" />
        </mxCell>
        <mxCell id="EsE5XuvK5zQ7oteYSQ8Q-15" value="Статистика" style="rounded=0;whiteSpace=wrap;html=1;" vertex="1" parent="1">
          <mxGeometry x="690" y="340" width="120" height="60" as="geometry" />
        </mxCell>
      </root>
    </mxGraphModel>
  </diagram>
</mxfile>
